PathFileType        4      (X/Y/Z)      /Users/FranklinZhao/OpenSimProject/Simulation/Models/Rajapogal_2015/marker_data/trc/transformed_SN001_0010_10m_01.trc         
DataRate	CameraRate	NumFrames	NumMarkers	Units	OrigDataRate	OrigDataStartFrame	OrigNumFrames
200.0	200.0	4	72	mm	200.0	241	641
Frame#	Time	LPSIS			RPSIS			LICR			RICR			LASIS			RASIS			STER			XPRO			C7			T4			T8			T10			RUA1			RUA2			RUA3			RUA4			RHLE			RHME			RTEMP			RHEAD			LHEAD			LTEMP			RACR			LACR			LUA1			LUA2			LUA3			LUA4			LHLE			LHME			LFA1			LFA2			LFA3			LRSP			LUSP			RFA1			RFA2			RFA3			RRSP			RUSP			LTH1			LTH2			LTH3			LTH4			LFLE			LFME			LSK1			LSK2			LSK3			LSK4			LTAM			LFAL			LFCC			LFMT1			LFMT2			LFMT5			RTH1			RTH2			RTH3			RTH4			RFLE			RFME			RSK1			RSK2			RSK3			RSK4			RFAL			RTAM			RFCC			RFMT1			RFMT2			RFMT5			
		X1	Y1	Z1	X2	Y2	Z2	X3	Y3	Z3	X4	Y4	Z4	X5	Y5	Z5	X6	Y6	Z6	X7	Y7	Z7	X8	Y8	Z8	X9	Y9	Z9	X10	Y10	Z10	X11	Y11	Z11	X12	Y12	Z12	X13	Y13	Z13	X14	Y14	Z14	X15	Y15	Z15	X16	Y16	Z16	X17	Y17	Z17	X18	Y18	Z18	X19	Y19	Z19	X20	Y20	Z20	X21	Y21	Z21	X22	Y22	Z22	X23	Y23	Z23	X24	Y24	Z24	X25	Y25	Z25	X26	Y26	Z26	X27	Y27	Z27	X28	Y28	Z28	X29	Y29	Z29	X30	Y30	Z30	X31	Y31	Z31	X32	Y32	Z32	X33	Y33	Z33	X34	Y34	Z34	X35	Y35	Z35	X36	Y36	Z36	X37	Y37	Z37	X38	Y38	Z38	X39	Y39	Z39	X40	Y40	Z40	X41	Y41	Z41	X42	Y42	Z42	X43	Y43	Z43	X44	Y44	Z44	X45	Y45	Z45	X46	Y46	Z46	X47	Y47	Z47	X48	Y48	Z48	X49	Y49	Z49	X50	Y50	Z50	X51	Y51	Z51	X52	Y52	Z52	X53	Y53	Z53	X54	Y54	Z54	X55	Y55	Z55	X56	Y56	Z56	X57	Y57	Z57	X58	Y58	Z58	X59	Y59	Z59	X60	Y60	Z60	X61	Y61	Z61	X62	Y62	Z62	X63	Y63	Z63	X64	Y64	Z64	X65	Y65	Z65	X66	Y66	Z66	X67	Y67	Z67	X68	Y68	Z68	X69	Y69	Z69	X70	Y70	Z70	X71	Y71	Z71	X72	Y72	Z72	
241	1.2	-105.4604034423828	977.62255859375	-266.51901245117205	-104.4165878295898	986.5104370117188	-187.46382141113298	-81.10166931152344	1034.280395507812	-361.8310852050783	-76.40864562988281	1068.409423828125	-101.9828796386721	82.47390747070312	946.8206176757811	-353.08239746093767	95.17520141601562	978.8253784179688	-97.49884033203143	57.72092819213867	1427.674682617188	-231.48667907714866	122.1591110229492	1221.656860351562	-240.39852905273463	-77.89750671386719	1527.375366210938	-223.4346771240237	-131.1642456054688	1417.6259765625	-236.98495483398466	-131.3095550537109	1282.402099609375	-237.57934570312523	-128.0088653564453	1238.522583007812	-242.72996520996114	-103.9645385742188	1310.704956054688	1.1683733463284942	-31.33265686035156	1290.9375	4.233630657195808	-39.43688201904297	1217.738891601562	13.272348403930437	-113.7191162109375	1225.83203125	10.781955718993915	-102.8135757446289	1135.177978515625	11.583354949950962	-109.9318542480469	1130.947509765625	-68.48461151123068	76.8870849609375	1689.154541015625	-151.4973297119144	118.520622253418	1699.83056640625	-187.3122711181644	117.8729019165039	1694.769409179688	-269.6763000488284	70.07425689697266	1675.83984375	-306.9252319335941	-35.80151748657227	1471.008422851562	-44.1499099731448	-32.02708435058594	1494.233642578125	-413.82797241210966	12.63104820251465	1350.088256835938	-482.26516723632835	-57.78908157348633	1321.983520507812	-483.67947387695335	-39.29580307006836	1242.27734375	-512.218688964844	29.97890663146973	1268.765991210938	-509.9136657714846	10.69102191925049	1178.9482421875	-529.8584594726565	-11.49685287475586	1145.600219726562	-464.20632934570335	220.7095794677734	1074.90087890625	-520.4725341796877	206.5151062011719	1063.803833007812	-563.5444335937502	226.6541290283203	1042.29541015625	-529.7170410156252	239.6445617675781	1008.4197998046878	-490.163757324219	213.7281036376953	980.6963500976561	-549.1665649414065	-68.43960571289062	946.7258911132812	76.63008117675764	-45.41131973266602	932.0392456054688	39.214134216308416	-68.4221420288086	909.32275390625	51.61168289184553	-81.42665100097656	854.603759765625	26.844207763671722	-121.7819976806641	877.6368408203125	74.63571166992172	2.295658588409424	665.9902954101561	-402.6075439453126	-46.84973526000977	672.4206542968749	-394.8657836914063	-65.93981170654297	566.3873901367186	-384.4234619140626	-3.01057767868042	563.6671752929686	-398.20877075195324	-50.1939811706543	472.66741943359375	-385.1715698242189	-39.35315704345703	449.9524841308593	-268.89929199218756	-199.4010925292969	372.88958740234375	-400.93710327148443	-228.8242645263672	425.7778015136718	-385.8685607910157	-302.0951232910156	382.82864379882807	-365.4206848144532	-268.5421142578125	329.62539672851557	-382.63327026367193	-400.7315673828125	232.88557434082026	-263.18334960937506	-440.5377807617188	275.9986267089843	-321.43469238281256	-465.105712890625	288.67852783203114	-262.4964904785157	-448.9361572265625	92.42698669433588	-306.0784301757812	-452.8383483886719	99.07011413574213	-336.6646118164062	-473.2929992675781	141.26478576660153	-370.1965026855469	91.37742614746094	724.021240234375	-58.06365585327161	151.1520385742188	727.1151123046875	-63.90745162963881	183.3179016113281	647.3107299804688	-77.7428436279298	121.6360244750977	628.123046875	-76.53157806396496	173.3842468261719	530.532470703125	-103.2406234741212	175.2132110595703	512.4776000976562	-222.55984497070318	150.0056610107422	347.4229431152344	-86.52912139892584	203.6883850097656	371.7319641113281	-86.7694168090821	218.6785430908203	265.6295776367188	-107.58242034912114	154.7417907714844	265.2597351074219	-99.14612579345707	172.8641510009766	69.80305480957028	-145.83935546875	209.1161956787109	92.48786163330074	-221.62121582031253	137.8133392333984	43.48430252075192	-195.8174133300781	337.1477355957031	35.36555099487301	-186.1438598632812	341.7352294921875	33.483341217040994	-146.9057922363281	297.7630615234375	25.09296226501463	-100.8212203979492	
242	1.205	-96.90457916259766	979.84716796875	-265.5433654785158	-95.88597869873047	988.5917358398438	-186.52647399902358	-72.89920043945312	1035.919555664062	-360.99508666992205	-68.43868255615234	1070.312133789062	-101.1821365356447	90.8875503540039	948.7766113281249	-352.575866699219	103.6280288696289	980.7948608398438	-96.88611602783222	66.53408813476562	1429.683837890625	-231.62683105468776	130.7647247314453	1223.533203125	-240.59445190429713	-68.88953399658203	1529.51904296875	-223.09893798828148	-122.3669357299805	1419.643920898438	-236.41590881347685	-122.4784240722656	1284.524658203125	-237.07475280761741	-119.1940383911133	1240.537231445312	-242.22439575195332	-93.27523040771484	1312.184936523438	1.8494907617566558	-20.55427551269531	1292.889404296875	4.431237697601081	-28.12700462341309	1219.630249023438	13.680769920348895	-102.4361343383789	1227.205932617188	11.696031570434345	-91.20901489257812	1136.716186523438	12.573953628539831	-98.42858123779297	1132.15576171875	-67.68713378906271	86.18630981445312	1691.126220703125	-151.2893676757815	127.9176712036133	1701.984619140625	-187.0925903320315	127.2672805786133	1696.57763671875	-269.42660522460966	79.4625015258789	1677.85595703125	-306.71737670898466	-26.32207679748535	1473.00341796875	-43.84519958496121	-23.69941711425781	1496.015747070312	-413.5758361816409	20.08978652954102	1351.038452148438	-481.91351318359403	-50.61235427856445	1323.3525390625	-482.49969482421903	-32.6505126953125	1243.384521484375	-510.5334472656252	36.96784973144531	1269.480346679688	-508.8531494140627	16.80101585388184	1179.674560546875	-527.9829711914065	-3.252143621444702	1147.4091796875	-461.23553466796903	225.2853698730469	1072.057006835938	-519.7357177734377	210.7939758300781	1061.289916992188	-562.761901855469	230.5984191894531	1039.254272460938	-529.0049438476565	243.2611236572266	1005.3293457031249	-489.4477844238283	216.515625	977.9570312499999	-548.1417236328127	-54.39568710327148	948.6087646484375	77.63948059082014	-31.26476097106934	934.2640991210938	40.29452514648421	-53.95743560791016	911.2012939453125	52.564964294433416	-66.2382583618164	856.3062744140625	27.919780731201012	-106.9372711181641	879.0299682617188	75.58525085449203	15.72415256500244	667.3568115234374	-402.6317138671876	-33.44867706298828	672.8843994140624	-394.2188110351563	-50.70237350463867	566.4564819335936	-383.9522705078126	12.32291030883789	564.9609374999999	-398.350067138672	-32.67873382568359	473.16201782226557	-385.1565856933595	-21.93679237365723	450.67190551757807	-268.5211486816407	-182.1506805419922	373.89636230468744	-400.4569396972657	-211.1219940185547	427.12908935546875	-385.6587219238282	-284.7164916992188	384.9905700683593	-364.4841613769532	-251.6465301513672	331.43972778320307	-381.53805541992193	-384.1987609863281	236.89685058593744	-261.64511108398443	-423.7037048339844	279.92095947265614	-320.16772460937506	-449.2488098144531	292.2298278808593	-261.30737304687506	-431.24853515625	96.33972930908197	-305.5572204589844	-434.9224548339844	102.97322845458974	-336.3091430664062	-455.1818542480469	145.46858215332026	-369.9942016601562	96.9408950805664	725.0604858398438	-57.815071105957166	156.5283355712891	727.3333129882812	-63.57032394409193	187.6865692138672	647.0200805664062	-77.43078613281261	125.5558853149414	628.735595703125	-76.80622863769543	176.8069763183594	530.7697143554688	-103.1758651733399	178.0423583984375	512.4479370117188	-222.8573760986329	152.2612457275391	347.6201171875	-86.62367248535162	206.1821899414062	371.6829528808594	-86.77758026123054	220.2206573486328	265.4053955078125	-107.64517974853524	156.3600616455078	265.5104064941406	-99.08486938476567	172.84716796875	69.86691284179685	-145.9799194335938	209.1694946289062	92.38311767578121	-221.87139892578122	137.8017883300781	43.53639602661129	-195.933349609375	337.1293029785156	35.173583984374964	-186.3126831054688	341.7685852050781	33.45024108886716	-146.9625854492188	297.7278442382812	25.13502502441404	-100.7872848510742	
243	1.21	-88.33223724365234	982.1643676757812	-264.43270874023455	-87.46269989013672	990.7920532226562	-185.61851501464858	-64.86550903320312	1037.658203125	-359.90368652343767	-61.55892944335938	1072.448974609375	-99.56501770019551	99.39203643798828	950.8789062499999	-352.07284545898455	112.0580596923828	982.81396484375	-96.43429565429706	75.26315307617188	1431.743286132812	-231.51318359375026	139.2534332275391	1225.666748046875	-241.01562500000023	-59.90059280395508	1531.81103515625	-222.70608520507838	-113.6052780151367	1421.860595703125	-235.89338684082057	-113.8344650268555	1286.97119140625	-236.61732482910182	-110.495719909668	1242.759643554688	-241.69068908691432	-82.7033462524414	1313.762451171875	2.572888612746951	-9.857460021972656	1294.893188476562	4.612692832946539	-16.84524536132812	1221.7587890625	13.884427070617456	-91.11405944824219	1228.784423828125	12.645812988281024	-79.59366607666016	1138.231567382812	13.295567512512001	-86.9881591796875	1133.689208984375	-66.86138916015646	95.53768157958984	1692.910278320312	-151.0433349609378	137.2881622314453	1703.702392578125	-186.70233154296912	136.5181121826172	1698.662231445312	-269.2307434082034	88.7643051147461	1679.787719726562	-306.3085327148441	-16.83430480957031	1475.1142578125	-43.60091018676785	-15.43083190917969	1497.89013671875	-413.6015625000003	27.33769416809082	1352.345336914062	-481.30093383789085	-43.43397521972656	1324.921142578125	-481.4803466796877	-26.01638603210449	1244.475219726562	-508.9823913574221	43.6750373840332	1270.307495117188	-507.7099304199221	22.87191581726074	1180.516479492188	-526.2047119140627	3.110431909561157	1149.072875976562	-459.0735778808596	229.7934875488281	1069.302368164062	-518.7261962890627	214.5681304931641	1058.548828125	-561.8990478515627	234.2901458740234	1036.37451171875	-528.0947265625002	246.6801300048828	1002.1990356445309	-488.6357727050783	219.0162963867188	975.2205810546874	-547.1130371093752	-40.38621139526367	950.6498413085938	78.55604553222639	-17.12029266357422	936.5138549804688	41.1419715881346	-39.43893814086914	913.2042236328125	53.590599060058416	-50.95275115966797	858.074462890625	28.975996017455895	-91.94541931152344	880.3133544921875	76.59957885742172	28.90506553649902	669.1661987304686	-402.5525817871095	-20.42752838134766	673.1643676757811	-392.4878845214845	-35.41032409667969	566.7905883789061	-383.0614013671876	27.40846824645996	566.7034301757811	-399.3260498046876	-15.22722816467285	474.09155273437494	-385.25564575195324	-4.43548583984375	452.0004577636718	-268.20349121093756	-164.6871948242188	375.37686157226557	-399.7796936035157	-193.1990051269531	428.85964965820307	-385.34252929687506	-266.99853515625	387.3074645996093	-363.79745483398443	-234.3640441894531	333.41400146484375	-380.56402587890625	-367.365234375	240.63180541992185	-260.0733947753907	-406.5721130371094	283.32507324218744	-319.35690307617193	-433.0865173339844	295.4248962402343	-260.21289062500006	-413.0675964355469	99.68684387207026	-304.9593811035156	-416.3580627441406	106.42531585693354	-335.4349975585938	-436.6004943847656	149.03504943847653	-369.5137023925781	102.4401626586914	726.0906372070312	-57.65386581420911	162.1649627685547	727.7427978515625	-63.24201583862318	192.1675415039062	646.8881225585938	-77.35799407958996	129.5931701660156	629.4234008789062	-76.20531463623058	180.0773162841797	530.8798217773438	-103.0988311767579	180.6411285400391	512.6278686523438	-223.17071533203128	154.4731903076172	347.9752197265625	-86.52497100830084	208.5429229736328	371.4889831542969	-86.9183425903321	221.5725402832031	265.1390991210938	-107.88385009765624	157.8034057617188	265.8599548339844	-98.78112030029301	172.8238677978516	69.96466827392575	-146.0905914306641	209.2750549316406	92.44181823730464	-222.07519531250003	137.7891845703125	43.57479858398435	-196.0609130859375	337.0900268554688	35.046604156494105	-186.4719085693359	341.7793273925781	33.37131118774411	-147.0204162597656	297.7169494628906	25.203321456909162	-100.80078125	
244	1.215	-79.9979019165039	984.4317626953125	-263.239929199219	-79.0575180053711	992.8701782226562	-184.59089660644548	-56.91229629516602	1039.403564453125	-358.98873901367205	-52.83926010131836	1074.305053710938	-98.67182159423848	107.7898483276367	953.0508422851561	-352.01547241210955	120.2241363525391	984.4743041992188	-96.13913726806659	83.888427734375	1433.8916015625	-231.79631042480494	147.7170257568359	1227.833374023438	-241.17503356933614	-50.97334289550781	1534.18701171875	-222.3284759521487	-104.9101486206055	1424.329956054688	-235.38475036621116	-105.1258316040039	1289.328979492188	-236.13349914550804	-101.9888687133789	1244.932373046875	-241.14967346191432	-72.1726303100586	1315.329833984375	3.3435285091397735	0.8977457284927368	1297.109375	4.7455410957334045	-5.492855548858643	1223.775756835938	14.219268798827894	-79.82020568847656	1230.308471679688	13.616575241088645	-67.68508911132812	1140.028930664062	14.08069705963114	-75.5318374633789	1135.249267578125	-65.9978485107424	104.9109954833984	1695.010986328125	-150.81124877929722	146.5525665283203	1705.606323242188	-186.6033325195315	145.8065032958984	1700.653930664062	-268.9034423828128	97.95440673828125	1682.060180664062	-306.2370910644534	-7.453641891479492	1477.27685546875	-43.31707000732449	-7.373735904693604	1499.8154296875	-413.5119018554691	34.46596145629883	1353.640502929688	-481.3955993652346	-36.33638381958008	1326.492431640625	-480.46463012695335	-19.46546173095703	1245.916625976562	-507.3890075683596	50.32319641113281	1271.261962890625	-506.5831298828127	28.93668937683105	1181.302124023438	-524.2771606445315	9.167191505432129	1150.532592773438	-456.8372497558596	234.0624694824219	1066.385986328125	-517.8010864257815	218.4126739501953	1055.955200195312	-560.8934326171877	237.8190460205078	1033.517456054688	-527.1521606445315	249.7787780761719	999.1281127929686	-487.85937500000017	221.2938995361328	972.5513916015624	-545.9639282226565	-26.36552238464355	952.9136962890625	79.38080596923811	-2.754717111587524	939.0711669921875	42.18756866455061	-24.85839080810547	915.4556274414062	54.48291778564436	-35.48773193359375	860.18994140625	29.934341430663903	-76.93506622314453	881.8802490234375	77.33995819091781	41.87579345703125	670.9502563476561	-402.0327148437501	-7.386641979217529	674.1171264648436	-391.6401367187501	-20.20059967041016	567.6104736328124	-382.29458618164074	42.44548797607422	568.7237548828124	-399.3978271484376	2.081121444702148	475.36126708984375	-385.179656982422	13.08564949035645	453.58996582031244	-267.88961791992193	-146.9139709472656	377.01037597656244	-398.97128295898443	-175.2376251220703	430.61572265624994	-384.68713378906256	-249.1405944824219	389.48599243164057	-362.93725585937506	-216.7499084472656	335.42608642578114	-379.53118896484386	-350.0836486816406	243.90277099609375	-258.5834045410157	-389.0833435058594	286.44802856445307	-318.6802062988282	-416.6709289550781	298.39263916015614	-259.0851135253907	-394.3120422363281	102.84156036376945	-303.9955139160156	-397.4492797851562	109.57221221923824	-334.5557861328125	-417.6827392578125	152.01736450195304	-368.7100524902344	108.0476531982422	727.2615356445312	-57.37392044067396	167.6992492675781	728.0693359375	-63.155281066894666	196.6554412841797	646.9713134765625	-77.40498352050793	133.988525390625	630.2730102539062	-76.1958465576173	183.2295379638672	531.1143188476562	-103.0115661621095	183.0626678466797	512.842529296875	-223.4190216064454	156.4390716552734	348.3659057617188	-86.56027221679695	210.7037048339844	371.3925476074219	-86.9301834106446	222.9567108154297	264.9386291503906	-107.98814392089844	159.1802825927734	266.1798095703125	-98.96691894531254	172.7970275878906	70.12815093994138	-146.1055755615234	209.3887176513672	92.39073944091793	-222.24678039550784	137.777099609375	43.59217834472653	-196.1792449951172	337.0700378417969	34.94276046752926	-186.5363159179688	341.7042541503906	33.40070343017575	-147.0901947021484	297.6029357910156	25.262393951416	-100.8839950561523	
